<mxfile host="app.diagrams.net" modified="2020-05-05T16:23:44.873Z" agent="5.0 (Macintosh; Intel Mac OS X 10_14) AppleWebKit/605.1.15 (KHTML, like Gecko) Version/12.0 Safari/605.1.15" etag="0gXpHtSZXB5JvtlQ01-L" version="13.0.8" type="github">
  <diagram id="q5J5VjdaekCsHLT_Fb5d" name="Page-1">
    <mxGraphModel dx="3192" dy="2629" grid="1" gridSize="10" guides="1" tooltips="1" connect="1" arrows="1" fold="1" page="1" pageScale="1" pageWidth="827" pageHeight="1169" math="0" shadow="0">
      <root>
        <mxCell id="0" />
        <mxCell id="1" parent="0" />
        <mxCell id="AKAtIvpSkt71lELQfXqe-55" style="edgeStyle=orthogonalEdgeStyle;rounded=0;orthogonalLoop=1;jettySize=auto;html=1;entryX=0;entryY=0.5;entryDx=0;entryDy=0;" edge="1" parent="1" source="AKAtIvpSkt71lELQfXqe-53" target="AKAtIvpSkt71lELQfXqe-2">
          <mxGeometry relative="1" as="geometry" />
        </mxCell>
        <mxCell id="AKAtIvpSkt71lELQfXqe-56" value="HTTP&lt;br&gt;SQL" style="edgeLabel;html=1;align=center;verticalAlign=middle;resizable=0;points=[];fontSize=20;" vertex="1" connectable="0" parent="AKAtIvpSkt71lELQfXqe-55">
          <mxGeometry x="0.0367" y="3" relative="1" as="geometry">
            <mxPoint as="offset" />
          </mxGeometry>
        </mxCell>
        <mxCell id="AKAtIvpSkt71lELQfXqe-53" value="&lt;div style=&quot;text-align: justify&quot;&gt;&lt;/div&gt;" style="rounded=1;whiteSpace=wrap;html=1;fillColor=#f5f5f5;strokeColor=#666666;fontColor=#333333;" vertex="1" parent="1">
          <mxGeometry x="2400" y="2510" width="730" height="601" as="geometry" />
        </mxCell>
        <mxCell id="5zfeYd5fArva7581OlwD-118" value="" style="rounded=0;whiteSpace=wrap;html=1;fillColor=#e1d5e7;strokeColor=#9673a6;" parent="1" vertex="1">
          <mxGeometry x="2591" y="1350" width="609" height="90" as="geometry" />
        </mxCell>
        <mxCell id="FwgfrrkIP15LteLJTURM-1" value="&lt;div style=&quot;text-align: justify&quot;&gt;&lt;/div&gt;" style="rounded=1;whiteSpace=wrap;html=1;fillColor=#f5f5f5;strokeColor=#666666;fontColor=#333333;" parent="1" vertex="1">
          <mxGeometry x="-110" y="50" width="282.75" height="450" as="geometry" />
        </mxCell>
        <mxCell id="jz0gnPFvKX6Ky0_a0KFI-6" value="&lt;div style=&quot;text-align: justify&quot;&gt;&lt;/div&gt;" style="rounded=1;whiteSpace=wrap;html=1;fillColor=#f5f5f5;strokeColor=#666666;fontColor=#333333;" parent="1" vertex="1">
          <mxGeometry x="290" y="50" width="500" height="450" as="geometry" />
        </mxCell>
        <mxCell id="yH4w1KLQsGXhBWExLYoO-1" value="&lt;font style=&quot;font-size: 20px&quot;&gt;时光机用户端&lt;br&gt;&lt;/font&gt;埋点渲染器" style="rounded=0;whiteSpace=wrap;html=1;fillColor=#fff2cc;strokeColor=#d6b656;" parent="1" vertex="1">
          <mxGeometry x="340" y="130" width="176" height="70" as="geometry" />
        </mxCell>
        <mxCell id="yH4w1KLQsGXhBWExLYoO-2" value="&lt;font style=&quot;font-size: 20px&quot;&gt;web管理端&lt;/font&gt;&lt;br&gt;埋点渲染规则配置" style="rounded=0;whiteSpace=wrap;html=1;fillColor=#d5e8d4;strokeColor=#82b366;" parent="1" vertex="1">
          <mxGeometry x="564" y="130" width="176" height="70" as="geometry" />
        </mxCell>
        <mxCell id="yH4w1KLQsGXhBWExLYoO-3" value="&lt;font style=&quot;font-size: 20px&quot;&gt;nodejs服务端&lt;br&gt;&lt;/font&gt;埋点与埋点渲染规则匹配" style="rounded=0;whiteSpace=wrap;html=1;fillColor=#fff2cc;strokeColor=#d6b656;" parent="1" vertex="1">
          <mxGeometry x="339" y="259" width="400" height="70" as="geometry" />
        </mxCell>
        <mxCell id="yH4w1KLQsGXhBWExLYoO-4" value="&lt;span&gt;&lt;font style=&quot;font-size: 20px&quot;&gt;Druid&lt;/font&gt;&lt;br&gt;&lt;b&gt;实时大数据仓库&lt;/b&gt;&lt;br&gt;&lt;/span&gt;" style="rounded=0;whiteSpace=wrap;html=1;fillColor=#fff2cc;strokeColor=#d6b656;" parent="1" vertex="1">
          <mxGeometry x="-54.5" y="390" width="180" height="70" as="geometry" />
        </mxCell>
        <mxCell id="yH4w1KLQsGXhBWExLYoO-5" value="数据采集&lt;br&gt;外卖APP omega埋点" style="rounded=0;whiteSpace=wrap;html=1;" parent="1" vertex="1">
          <mxGeometry x="150" y="-240" width="176" height="70" as="geometry" />
        </mxCell>
        <mxCell id="yH4w1KLQsGXhBWExLYoO-6" value="&lt;font&gt;&lt;font style=&quot;font-size: 20px&quot;&gt;数据清洗/处理&lt;/font&gt;&lt;/font&gt;" style="rounded=0;whiteSpace=wrap;html=1;fillColor=#fff2cc;strokeColor=#d6b656;" parent="1" vertex="1">
          <mxGeometry x="-54.5" y="260" width="176" height="70" as="geometry" />
        </mxCell>
        <mxCell id="yH4w1KLQsGXhBWExLYoO-7" value="&lt;font style=&quot;font-size: 20px&quot;&gt;mysql&lt;/font&gt;&lt;br&gt;埋点渲染规则配置" style="rounded=0;whiteSpace=wrap;html=1;fillColor=#d5e8d4;strokeColor=#82b366;" parent="1" vertex="1">
          <mxGeometry x="600" y="390" width="140" height="70" as="geometry" />
        </mxCell>
        <mxCell id="yH4w1KLQsGXhBWExLYoO-8" value="" style="endArrow=classic;html=1;entryX=0.5;entryY=0;entryDx=0;entryDy=0;" parent="1" target="yH4w1KLQsGXhBWExLYoO-6" edge="1">
          <mxGeometry width="50" height="50" relative="1" as="geometry">
            <mxPoint x="33.5" y="201" as="sourcePoint" />
            <mxPoint x="355.5" y="270" as="targetPoint" />
          </mxGeometry>
        </mxCell>
        <mxCell id="yH4w1KLQsGXhBWExLYoO-9" value="" style="endArrow=classic;html=1;entryX=0.5;entryY=0;entryDx=0;entryDy=0;" parent="1" edge="1">
          <mxGeometry width="50" height="50" relative="1" as="geometry">
            <mxPoint x="33" y="330" as="sourcePoint" />
            <mxPoint x="33" y="389" as="targetPoint" />
          </mxGeometry>
        </mxCell>
        <mxCell id="yH4w1KLQsGXhBWExLYoO-10" value="" style="endArrow=classic;html=1;exitX=0.5;exitY=1;exitDx=0;exitDy=0;entryX=0.224;entryY=-0.008;entryDx=0;entryDy=0;entryPerimeter=0;" parent="1" source="yH4w1KLQsGXhBWExLYoO-1" target="yH4w1KLQsGXhBWExLYoO-3" edge="1">
          <mxGeometry width="50" height="50" relative="1" as="geometry">
            <mxPoint x="658" y="261" as="sourcePoint" />
            <mxPoint x="690" y="210" as="targetPoint" />
          </mxGeometry>
        </mxCell>
        <mxCell id="5zfeYd5fArva7581OlwD-33" value="http" style="text;html=1;align=center;verticalAlign=middle;resizable=0;points=[];labelBackgroundColor=#ffffff;" parent="yH4w1KLQsGXhBWExLYoO-10" vertex="1" connectable="0">
          <mxGeometry x="0.0384" y="1" relative="1" as="geometry">
            <mxPoint as="offset" />
          </mxGeometry>
        </mxCell>
        <mxCell id="yH4w1KLQsGXhBWExLYoO-12" value="" style="endArrow=classic;startArrow=classic;html=1;exitX=0.5;exitY=0;exitDx=0;exitDy=0;entryX=0.825;entryY=1.014;entryDx=0;entryDy=0;entryPerimeter=0;" parent="1" source="yH4w1KLQsGXhBWExLYoO-7" target="yH4w1KLQsGXhBWExLYoO-3" edge="1">
          <mxGeometry width="50" height="50" relative="1" as="geometry">
            <mxPoint x="670" y="380" as="sourcePoint" />
            <mxPoint x="700" y="330" as="targetPoint" />
            <Array as="points" />
          </mxGeometry>
        </mxCell>
        <mxCell id="yH4w1KLQsGXhBWExLYoO-13" value="" style="endArrow=classic;html=1;exitX=0.5;exitY=1;exitDx=0;exitDy=0;entryX=0.78;entryY=0;entryDx=0;entryDy=0;entryPerimeter=0;" parent="1" source="yH4w1KLQsGXhBWExLYoO-2" target="yH4w1KLQsGXhBWExLYoO-3" edge="1">
          <mxGeometry width="50" height="50" relative="1" as="geometry">
            <mxPoint x="650" y="250" as="sourcePoint" />
            <mxPoint x="700" y="200" as="targetPoint" />
          </mxGeometry>
        </mxCell>
        <mxCell id="5zfeYd5fArva7581OlwD-34" value="http" style="text;html=1;align=center;verticalAlign=middle;resizable=0;points=[];labelBackgroundColor=#ffffff;" parent="yH4w1KLQsGXhBWExLYoO-13" vertex="1" connectable="0">
          <mxGeometry x="-0.1968" y="-2" relative="1" as="geometry">
            <mxPoint as="offset" />
          </mxGeometry>
        </mxCell>
        <mxCell id="yH4w1KLQsGXhBWExLYoO-30" value="&lt;font style=&quot;font-size: 20px&quot;&gt;外卖App&amp;nbsp;&lt;br&gt;&lt;/font&gt;omega埋点" style="rounded=0;whiteSpace=wrap;html=1;fillColor=#fff2cc;strokeColor=#d6b656;" parent="1" vertex="1">
          <mxGeometry x="-54.5" y="130" width="176" height="70" as="geometry" />
        </mxCell>
        <mxCell id="yH4w1KLQsGXhBWExLYoO-31" value="web用户端&lt;br&gt;场景还原" style="rounded=0;whiteSpace=wrap;html=1;" parent="1" vertex="1">
          <mxGeometry x="464" y="-240" width="176" height="70" as="geometry" />
        </mxCell>
        <mxCell id="yH4w1KLQsGXhBWExLYoO-38" value="" style="endArrow=classic;html=1;exitX=1;exitY=0.5;exitDx=0;exitDy=0;dashed=1;" parent="1" source="yH4w1KLQsGXhBWExLYoO-5" edge="1">
          <mxGeometry width="50" height="50" relative="1" as="geometry">
            <mxPoint x="440" y="50" as="sourcePoint" />
            <mxPoint x="465" y="-205" as="targetPoint" />
          </mxGeometry>
        </mxCell>
        <mxCell id="yH4w1KLQsGXhBWExLYoO-43" value="&lt;p style=&quot;margin: 0px ; margin-top: 6px ; text-align: center&quot;&gt;&lt;b&gt;Event&lt;/b&gt;&lt;/p&gt;&lt;hr&gt;&lt;p style=&quot;margin: 0px ; margin-left: 8px&quot;&gt;+ eventData: Object //埋点数据&amp;nbsp;&lt;br&gt;+ eventRule: Object //埋点渲染规则&lt;/p&gt;" style="align=left;overflow=fill;html=1;dropTarget=0;" parent="1" vertex="1">
          <mxGeometry x="260" y="545" width="230" height="80" as="geometry" />
        </mxCell>
        <mxCell id="yH4w1KLQsGXhBWExLYoO-44" value="" style="shape=component;jettyWidth=8;jettyHeight=4;" parent="yH4w1KLQsGXhBWExLYoO-43" vertex="1">
          <mxGeometry x="1" width="20" height="20" relative="1" as="geometry">
            <mxPoint x="-24" y="4" as="offset" />
          </mxGeometry>
        </mxCell>
        <mxCell id="yH4w1KLQsGXhBWExLYoO-45" value="&lt;p style=&quot;margin: 0px ; margin-top: 6px ; text-align: center&quot;&gt;&lt;b&gt;EventAttr&lt;/b&gt;&lt;/p&gt;&lt;hr&gt;&lt;p style=&quot;margin: 0px ; margin-left: 8px&quot;&gt;+ attrValue: Any // 埋点属性值&lt;br&gt;&lt;/p&gt;&lt;p style=&quot;margin: 0px ; margin-left: 8px&quot;&gt;+ attrRule: Object // 埋点属性渲染规则&lt;/p&gt;" style="align=left;overflow=fill;html=1;dropTarget=0;" parent="1" vertex="1">
          <mxGeometry x="260" y="700" width="230" height="80" as="geometry" />
        </mxCell>
        <mxCell id="yH4w1KLQsGXhBWExLYoO-46" value="" style="shape=component;jettyWidth=8;jettyHeight=4;" parent="yH4w1KLQsGXhBWExLYoO-45" vertex="1">
          <mxGeometry x="1" width="20" height="20" relative="1" as="geometry">
            <mxPoint x="-24" y="4" as="offset" />
          </mxGeometry>
        </mxCell>
        <mxCell id="yH4w1KLQsGXhBWExLYoO-48" value="" style="endArrow=diamondThin;endFill=1;endSize=24;html=1;exitX=0.5;exitY=1;exitDx=0;exitDy=0;entryX=0.5;entryY=0;entryDx=0;entryDy=0;" parent="1" source="yH4w1KLQsGXhBWExLYoO-43" target="yH4w1KLQsGXhBWExLYoO-45" edge="1">
          <mxGeometry width="160" relative="1" as="geometry">
            <mxPoint x="240" y="660" as="sourcePoint" />
            <mxPoint x="400" y="660" as="targetPoint" />
          </mxGeometry>
        </mxCell>
        <mxCell id="yH4w1KLQsGXhBWExLYoO-49" value="组合" style="text;html=1;align=center;verticalAlign=middle;resizable=0;points=[];labelBackgroundColor=#ffffff;" parent="yH4w1KLQsGXhBWExLYoO-48" vertex="1" connectable="0">
          <mxGeometry x="-0.225" y="-2" relative="1" as="geometry">
            <mxPoint as="offset" />
          </mxGeometry>
        </mxCell>
        <mxCell id="yH4w1KLQsGXhBWExLYoO-52" value="非根节点？" style="endArrow=diamondThin;endFill=1;endSize=24;html=1;exitX=0.5;exitY=1;exitDx=0;exitDy=0;entryX=1;entryY=0.5;entryDx=0;entryDy=0;align=right;" parent="1" source="yH4w1KLQsGXhBWExLYoO-45" target="yH4w1KLQsGXhBWExLYoO-45" edge="1">
          <mxGeometry width="160" relative="1" as="geometry">
            <mxPoint x="334" y="840" as="sourcePoint" />
            <mxPoint x="570" y="840" as="targetPoint" />
            <Array as="points">
              <mxPoint x="375" y="820" />
              <mxPoint x="460" y="820" />
              <mxPoint x="540" y="820" />
              <mxPoint x="540" y="740" />
            </Array>
          </mxGeometry>
        </mxCell>
        <mxCell id="jz0gnPFvKX6Ky0_a0KFI-2" value="&lt;font style=&quot;font-size: 20px&quot;&gt;redis&lt;/font&gt;&lt;br&gt;热案例" style="rounded=0;whiteSpace=wrap;html=1;" parent="1" vertex="1">
          <mxGeometry x="440" y="390" width="140" height="70" as="geometry" />
        </mxCell>
        <mxCell id="jz0gnPFvKX6Ky0_a0KFI-3" value="" style="endArrow=classic;startArrow=classic;html=1;exitX=0.5;exitY=0;exitDx=0;exitDy=0;entryX=0.825;entryY=1.014;entryDx=0;entryDy=0;entryPerimeter=0;" parent="1" edge="1">
          <mxGeometry width="50" height="50" relative="1" as="geometry">
            <mxPoint x="516" y="389.02" as="sourcePoint" />
            <mxPoint x="516" y="330" as="targetPoint" />
            <Array as="points" />
          </mxGeometry>
        </mxCell>
        <mxCell id="jz0gnPFvKX6Ky0_a0KFI-4" value="" style="endArrow=classic;html=1;exitX=0.053;exitY=1.012;exitDx=0;exitDy=0;exitPerimeter=0;" parent="1" source="yH4w1KLQsGXhBWExLYoO-3" target="yH4w1KLQsGXhBWExLYoO-4" edge="1">
          <mxGeometry width="50" height="50" relative="1" as="geometry">
            <mxPoint x="250" y="424.5" as="sourcePoint" />
            <mxPoint x="360" y="331" as="targetPoint" />
            <Array as="points">
              <mxPoint x="360" y="425" />
            </Array>
          </mxGeometry>
        </mxCell>
        <mxCell id="FwgfrrkIP15LteLJTURM-2" value="http api" style="text;html=1;align=center;verticalAlign=middle;resizable=0;points=[];labelBackgroundColor=#ffffff;fontSize=20;" parent="jz0gnPFvKX6Ky0_a0KFI-4" vertex="1" connectable="0">
          <mxGeometry x="-0.376" y="3" relative="1" as="geometry">
            <mxPoint x="-122.3" y="-3" as="offset" />
          </mxGeometry>
        </mxCell>
        <mxCell id="jz0gnPFvKX6Ky0_a0KFI-8" value="&lt;font style=&quot;font-size: 24px&quot;&gt;&lt;b&gt;大前端&lt;/b&gt;&lt;/font&gt;" style="text;html=1;strokeColor=none;fillColor=none;align=center;verticalAlign=middle;whiteSpace=wrap;rounded=0;" parent="1" vertex="1">
          <mxGeometry x="450" y="70" width="160" height="20" as="geometry" />
        </mxCell>
        <mxCell id="jz0gnPFvKX6Ky0_a0KFI-20" value="" style="triangle;whiteSpace=wrap;html=1;direction=north;" parent="1" vertex="1">
          <mxGeometry x="164" y="880" width="400" height="170" as="geometry" />
        </mxCell>
        <mxCell id="jz0gnPFvKX6Ky0_a0KFI-21" value="" style="shape=trapezoid;perimeter=trapezoidPerimeter;whiteSpace=wrap;html=1;" parent="1" vertex="1">
          <mxGeometry x="30" y="1050" width="670" height="110" as="geometry" />
        </mxCell>
        <mxCell id="jz0gnPFvKX6Ky0_a0KFI-22" value="" style="shape=trapezoid;perimeter=trapezoidPerimeter;whiteSpace=wrap;html=1;fillColor=#fff2cc;strokeColor=#d6b656;" parent="1" vertex="1">
          <mxGeometry x="-190" y="1160" width="1110" height="180" as="geometry" />
        </mxCell>
        <mxCell id="jz0gnPFvKX6Ky0_a0KFI-23" value="&lt;b&gt;宏观数据观测&lt;br&gt;&lt;/b&gt;&lt;font style=&quot;font-size: 20px&quot; color=&quot;#4d4d4d&quot;&gt;PV/UV，整体转化率等统计指标&lt;/font&gt;" style="text;html=1;strokeColor=none;fillColor=none;align=center;verticalAlign=middle;whiteSpace=wrap;rounded=0;fontSize=26;" parent="1" vertex="1">
          <mxGeometry x="222.75" y="990" width="284.5" height="20" as="geometry" />
        </mxCell>
        <mxCell id="jz0gnPFvKX6Ky0_a0KFI-24" value="群体数据分析&lt;br&gt;&lt;span style=&quot;font-weight: normal&quot;&gt;&lt;font style=&quot;font-size: 20px&quot; color=&quot;#4d4d4d&quot;&gt;细分（城市，年龄，标签）的统计指标&lt;/font&gt;&lt;/span&gt;" style="text;html=1;strokeColor=none;fillColor=none;align=center;verticalAlign=middle;whiteSpace=wrap;rounded=0;fontSize=30;fontStyle=1" parent="1" vertex="1">
          <mxGeometry x="159.25" y="1100" width="420.75" height="20" as="geometry" />
        </mxCell>
        <mxCell id="jz0gnPFvKX6Ky0_a0KFI-25" value="微观数据分析&lt;br&gt;" style="text;html=1;strokeColor=none;fillColor=none;align=center;verticalAlign=middle;whiteSpace=wrap;rounded=0;fontSize=40;fontStyle=1" parent="1" vertex="1">
          <mxGeometry x="-29" y="1210" width="819" height="20" as="geometry" />
        </mxCell>
        <mxCell id="jz0gnPFvKX6Ky0_a0KFI-30" value="用户画像，单次session级行为数据&lt;br style=&quot;font-size: 20px&quot;&gt;&lt;b&gt;&lt;font color=&quot;#0066cc&quot;&gt;辅助定位问题，避免看指标拍脑门做决定&lt;/font&gt;&lt;/b&gt;" style="text;html=1;fontSize=20;fontColor=#4D4D4D;align=center;" parent="1" vertex="1">
          <mxGeometry x="-54.5" y="1260" width="870" height="50" as="geometry" />
        </mxCell>
        <mxCell id="FwgfrrkIP15LteLJTURM-3" value="&lt;font style=&quot;font-size: 24px&quot;&gt;&lt;b&gt;大数据层&lt;/b&gt;&lt;/font&gt;" style="text;html=1;strokeColor=none;fillColor=none;align=center;verticalAlign=middle;whiteSpace=wrap;rounded=0;" parent="1" vertex="1">
          <mxGeometry x="-54.5" y="70" width="160" height="20" as="geometry" />
        </mxCell>
        <mxCell id="5zfeYd5fArva7581OlwD-1" value="&lt;div style=&quot;text-align: justify&quot;&gt;&lt;/div&gt;" style="rounded=1;whiteSpace=wrap;html=1;fillColor=#f5f5f5;strokeColor=#666666;fontColor=#333333;" parent="1" vertex="1">
          <mxGeometry x="1160" y="40" width="492.75" height="520" as="geometry" />
        </mxCell>
        <mxCell id="5zfeYd5fArva7581OlwD-2" value="&lt;div style=&quot;text-align: justify&quot;&gt;&lt;/div&gt;" style="rounded=1;whiteSpace=wrap;html=1;fillColor=#f5f5f5;strokeColor=#666666;fontColor=#333333;" parent="1" vertex="1">
          <mxGeometry x="1770" y="40" width="500" height="520" as="geometry" />
        </mxCell>
        <mxCell id="5zfeYd5fArva7581OlwD-3" value="&lt;font style=&quot;font-size: 20px&quot;&gt;时光机用户端&lt;br&gt;&lt;/font&gt;埋点渲染器" style="rounded=0;whiteSpace=wrap;html=1;fillColor=#d5e8d4;strokeColor=#82b366;" parent="1" vertex="1">
          <mxGeometry x="1820" y="120" width="176" height="70" as="geometry" />
        </mxCell>
        <mxCell id="5zfeYd5fArva7581OlwD-4" value="&lt;font style=&quot;font-size: 20px&quot;&gt;web管理端&lt;/font&gt;&lt;br&gt;埋点渲染规则配置" style="rounded=0;whiteSpace=wrap;html=1;fillColor=#aa00ff;strokeColor=#7700CC;fontColor=#ffffff;" parent="1" vertex="1">
          <mxGeometry x="2044" y="120" width="176" height="70" as="geometry" />
        </mxCell>
        <mxCell id="5zfeYd5fArva7581OlwD-5" value="&lt;font style=&quot;font-size: 20px&quot;&gt;nodejs服务端&lt;br&gt;&lt;/font&gt;埋点与埋点渲染规则匹配" style="rounded=0;whiteSpace=wrap;html=1;fillColor=#1ba1e2;strokeColor=#006EAF;fontColor=#ffffff;" parent="1" vertex="1">
          <mxGeometry x="1819" y="249" width="400" height="70" as="geometry" />
        </mxCell>
        <mxCell id="5zfeYd5fArva7581OlwD-6" value="&lt;span&gt;&lt;font style=&quot;font-size: 20px&quot;&gt;Druid&lt;/font&gt;&lt;br&gt;&lt;b&gt;实时大数据仓库&lt;/b&gt;&lt;br&gt;&lt;/span&gt;" style="rounded=0;whiteSpace=wrap;html=1;fillColor=#fff2cc;strokeColor=#d6b656;" parent="1" vertex="1">
          <mxGeometry x="1425.5" y="380" width="180" height="70" as="geometry" />
        </mxCell>
        <mxCell id="5zfeYd5fArva7581OlwD-7" value="&lt;font&gt;&lt;font style=&quot;font-size: 20px&quot;&gt;数据清洗/处理&lt;/font&gt;&lt;/font&gt;" style="rounded=0;whiteSpace=wrap;html=1;fillColor=#fff2cc;strokeColor=#d6b656;" parent="1" vertex="1">
          <mxGeometry x="1425.5" y="250" width="176" height="70" as="geometry" />
        </mxCell>
        <mxCell id="5zfeYd5fArva7581OlwD-8" value="&lt;font style=&quot;font-size: 20px&quot;&gt;mysql&lt;/font&gt;&lt;br&gt;埋点渲染规则配置" style="rounded=0;whiteSpace=wrap;html=1;fillColor=#aa00ff;strokeColor=#7700CC;fontColor=#ffffff;" parent="1" vertex="1">
          <mxGeometry x="2080" y="380" width="140" height="70" as="geometry" />
        </mxCell>
        <mxCell id="5zfeYd5fArva7581OlwD-9" value="" style="endArrow=classic;html=1;entryX=0.5;entryY=0;entryDx=0;entryDy=0;" parent="1" target="5zfeYd5fArva7581OlwD-7" edge="1">
          <mxGeometry width="50" height="50" relative="1" as="geometry">
            <mxPoint x="1513.5" y="191" as="sourcePoint" />
            <mxPoint x="1835.5" y="260" as="targetPoint" />
          </mxGeometry>
        </mxCell>
        <mxCell id="5zfeYd5fArva7581OlwD-10" value="" style="endArrow=classic;html=1;entryX=0.5;entryY=0;entryDx=0;entryDy=0;" parent="1" edge="1">
          <mxGeometry width="50" height="50" relative="1" as="geometry">
            <mxPoint x="1513" y="319.99999999999955" as="sourcePoint" />
            <mxPoint x="1513" y="379" as="targetPoint" />
          </mxGeometry>
        </mxCell>
        <mxCell id="5zfeYd5fArva7581OlwD-12" value="" style="endArrow=classic;startArrow=classic;html=1;exitX=0.5;exitY=0;exitDx=0;exitDy=0;entryX=0.825;entryY=1.014;entryDx=0;entryDy=0;entryPerimeter=0;" parent="1" source="5zfeYd5fArva7581OlwD-8" target="5zfeYd5fArva7581OlwD-5" edge="1">
          <mxGeometry width="50" height="50" relative="1" as="geometry">
            <mxPoint x="2150" y="370" as="sourcePoint" />
            <mxPoint x="2180" y="320" as="targetPoint" />
            <Array as="points" />
          </mxGeometry>
        </mxCell>
        <mxCell id="5zfeYd5fArva7581OlwD-13" value="" style="endArrow=classic;html=1;exitX=0.5;exitY=1;exitDx=0;exitDy=0;entryX=0.78;entryY=0;entryDx=0;entryDy=0;entryPerimeter=0;" parent="1" source="5zfeYd5fArva7581OlwD-4" target="5zfeYd5fArva7581OlwD-5" edge="1">
          <mxGeometry width="50" height="50" relative="1" as="geometry">
            <mxPoint x="2130" y="240" as="sourcePoint" />
            <mxPoint x="2180" y="190" as="targetPoint" />
          </mxGeometry>
        </mxCell>
        <mxCell id="5zfeYd5fArva7581OlwD-32" value="http" style="text;html=1;align=center;verticalAlign=middle;resizable=0;points=[];labelBackgroundColor=#ffffff;" parent="5zfeYd5fArva7581OlwD-13" vertex="1" connectable="0">
          <mxGeometry x="-0.0843" y="-1" relative="1" as="geometry">
            <mxPoint as="offset" />
          </mxGeometry>
        </mxCell>
        <mxCell id="5zfeYd5fArva7581OlwD-14" value="&lt;font style=&quot;font-size: 20px&quot;&gt;外卖App&amp;nbsp;&lt;br&gt;&lt;/font&gt;omega埋点" style="rounded=0;whiteSpace=wrap;html=1;fillColor=#fff2cc;strokeColor=#d6b656;" parent="1" vertex="1">
          <mxGeometry x="1425.5" y="120" width="176" height="70" as="geometry" />
        </mxCell>
        <mxCell id="5zfeYd5fArva7581OlwD-15" value="&lt;font style=&quot;font-size: 20px&quot;&gt;redis&lt;/font&gt;&lt;br&gt;热案例" style="rounded=0;whiteSpace=wrap;html=1;fillColor=#e1d5e7;strokeColor=#9673a6;" parent="1" vertex="1">
          <mxGeometry x="1920" y="380" width="140" height="70" as="geometry" />
        </mxCell>
        <mxCell id="5zfeYd5fArva7581OlwD-16" value="" style="endArrow=classic;startArrow=classic;html=1;exitX=0.5;exitY=0;exitDx=0;exitDy=0;entryX=0.825;entryY=1.014;entryDx=0;entryDy=0;entryPerimeter=0;" parent="1" edge="1">
          <mxGeometry width="50" height="50" relative="1" as="geometry">
            <mxPoint x="1996" y="379.02" as="sourcePoint" />
            <mxPoint x="1996" y="319.99999999999955" as="targetPoint" />
            <Array as="points" />
          </mxGeometry>
        </mxCell>
        <mxCell id="5zfeYd5fArva7581OlwD-19" value="&lt;font style=&quot;font-size: 24px&quot;&gt;&lt;b&gt;大前端&lt;/b&gt;&lt;/font&gt;" style="text;html=1;strokeColor=none;fillColor=none;align=center;verticalAlign=middle;whiteSpace=wrap;rounded=0;" parent="1" vertex="1">
          <mxGeometry x="1930" y="60" width="160" height="20" as="geometry" />
        </mxCell>
        <mxCell id="5zfeYd5fArva7581OlwD-20" value="&lt;font style=&quot;font-size: 24px&quot;&gt;&lt;b&gt;大数据层&lt;/b&gt;&lt;/font&gt;" style="text;html=1;strokeColor=none;fillColor=none;align=center;verticalAlign=middle;whiteSpace=wrap;rounded=0;" parent="1" vertex="1">
          <mxGeometry x="1300" y="60" width="160" height="20" as="geometry" />
        </mxCell>
        <mxCell id="5zfeYd5fArva7581OlwD-24" value="&lt;span&gt;&lt;span style=&quot;font-size: 20px&quot;&gt;Elastic Search&lt;/span&gt;&lt;br&gt;&lt;b&gt;弹性大数据仓库&lt;/b&gt;&lt;br&gt;&lt;/span&gt;" style="rounded=0;whiteSpace=wrap;html=1;fillColor=#fff2cc;strokeColor=#d6b656;" parent="1" vertex="1">
          <mxGeometry x="1210" y="380" width="180" height="70" as="geometry" />
        </mxCell>
        <mxCell id="5zfeYd5fArva7581OlwD-25" value="&lt;font&gt;&lt;font style=&quot;font-size: 20px&quot;&gt;把脉服务&lt;/font&gt;&lt;/font&gt;" style="rounded=0;whiteSpace=wrap;html=1;fillColor=#fff2cc;strokeColor=#d6b656;" parent="1" vertex="1">
          <mxGeometry x="1210" y="250" width="176" height="70" as="geometry" />
        </mxCell>
        <mxCell id="5zfeYd5fArva7581OlwD-26" value="" style="endArrow=classic;html=1;entryX=0.5;entryY=0;entryDx=0;entryDy=0;" parent="1" target="5zfeYd5fArva7581OlwD-25" edge="1">
          <mxGeometry width="50" height="50" relative="1" as="geometry">
            <mxPoint x="1298" y="191" as="sourcePoint" />
            <mxPoint x="1620" y="260" as="targetPoint" />
          </mxGeometry>
        </mxCell>
        <mxCell id="5zfeYd5fArva7581OlwD-27" value="" style="endArrow=classic;html=1;entryX=0.5;entryY=0;entryDx=0;entryDy=0;" parent="1" edge="1">
          <mxGeometry width="50" height="50" relative="1" as="geometry">
            <mxPoint x="1297.5" y="319.99999999999955" as="sourcePoint" />
            <mxPoint x="1297.5" y="379" as="targetPoint" />
          </mxGeometry>
        </mxCell>
        <mxCell id="5zfeYd5fArva7581OlwD-28" value="&lt;font style=&quot;font-size: 20px&quot;&gt;外卖api&amp;nbsp;&lt;br&gt;&lt;/font&gt;接口日志" style="rounded=0;whiteSpace=wrap;html=1;fillColor=#fff2cc;strokeColor=#d6b656;" parent="1" vertex="1">
          <mxGeometry x="1210" y="120" width="176" height="70" as="geometry" />
        </mxCell>
        <mxCell id="5zfeYd5fArva7581OlwD-29" value="http" style="endArrow=classic;html=1;exitX=0.5;exitY=1;exitDx=0;exitDy=0;entryX=0.224;entryY=-0.008;entryDx=0;entryDy=0;entryPerimeter=0;" parent="1" edge="1">
          <mxGeometry width="50" height="50" relative="1" as="geometry">
            <mxPoint x="1907.58" y="190" as="sourcePoint" />
            <mxPoint x="1908.1799999999998" y="248.44000000000005" as="targetPoint" />
          </mxGeometry>
        </mxCell>
        <mxCell id="5zfeYd5fArva7581OlwD-30" value="" style="endArrow=classic;html=1;exitX=0.053;exitY=1.012;exitDx=0;exitDy=0;exitPerimeter=0;" parent="1" edge="1">
          <mxGeometry width="50" height="50" relative="1" as="geometry">
            <mxPoint x="1840.1999999999998" y="318.9999999999999" as="sourcePoint" />
            <mxPoint x="1605.5" y="414.15999999999997" as="targetPoint" />
            <Array as="points">
              <mxPoint x="1840" y="414.15999999999997" />
            </Array>
          </mxGeometry>
        </mxCell>
        <mxCell id="5zfeYd5fArva7581OlwD-31" value="http api" style="text;html=1;align=center;verticalAlign=middle;resizable=0;points=[];labelBackgroundColor=#ffffff;fontSize=20;" parent="5zfeYd5fArva7581OlwD-30" vertex="1" connectable="0">
          <mxGeometry x="-0.376" y="3" relative="1" as="geometry">
            <mxPoint x="-122.3" y="-3" as="offset" />
          </mxGeometry>
        </mxCell>
        <mxCell id="5zfeYd5fArva7581OlwD-35" value="" style="endArrow=classic;html=1;exitX=0.138;exitY=1.057;exitDx=0;exitDy=0;exitPerimeter=0;" parent="1" source="5zfeYd5fArva7581OlwD-5" target="5zfeYd5fArva7581OlwD-24" edge="1">
          <mxGeometry width="50" height="50" relative="1" as="geometry">
            <mxPoint x="1834.6999999999998" y="377.42" as="sourcePoint" />
            <mxPoint x="1600" y="472.57999999999987" as="targetPoint" />
            <Array as="points">
              <mxPoint x="1874" y="490" />
              <mxPoint x="1300" y="490" />
            </Array>
          </mxGeometry>
        </mxCell>
        <mxCell id="5zfeYd5fArva7581OlwD-36" value="http api" style="text;html=1;align=center;verticalAlign=middle;resizable=0;points=[];labelBackgroundColor=#ffffff;fontSize=20;" parent="5zfeYd5fArva7581OlwD-35" vertex="1" connectable="0">
          <mxGeometry x="-0.376" y="3" relative="1" as="geometry">
            <mxPoint x="-122.3" y="-3" as="offset" />
          </mxGeometry>
        </mxCell>
        <mxCell id="5zfeYd5fArva7581OlwD-65" value="&lt;div style=&quot;text-align: justify&quot;&gt;&lt;/div&gt;" style="rounded=1;whiteSpace=wrap;html=1;fillColor=#f5f5f5;strokeColor=#666666;fontColor=#333333;" parent="1" vertex="1">
          <mxGeometry x="1710" y="1030" width="702.75" height="540" as="geometry" />
        </mxCell>
        <mxCell id="5zfeYd5fArva7581OlwD-66" value="&lt;div style=&quot;text-align: justify&quot;&gt;&lt;/div&gt;" style="rounded=1;whiteSpace=wrap;html=1;fillColor=#f5f5f5;strokeColor=#666666;fontColor=#333333;" parent="1" vertex="1">
          <mxGeometry x="2530" y="900" width="730" height="970" as="geometry" />
        </mxCell>
        <mxCell id="5zfeYd5fArva7581OlwD-67" value="" style="rounded=0;whiteSpace=wrap;html=1;fillColor=#d5e8d4;strokeColor=#82b366;" parent="1" vertex="1">
          <mxGeometry x="2589" y="980" width="451" height="280" as="geometry" />
        </mxCell>
        <mxCell id="5zfeYd5fArva7581OlwD-68" value="&lt;font style=&quot;font-size: 20px&quot;&gt;时光机web&lt;br&gt;管理端&lt;/font&gt;&lt;br&gt;埋点渲染规则配置" style="rounded=0;whiteSpace=wrap;html=1;fillColor=#aa00ff;strokeColor=#7700CC;fontColor=#ffffff;" parent="1" vertex="1">
          <mxGeometry x="3070" y="980" width="130" height="280" as="geometry" />
        </mxCell>
        <mxCell id="5zfeYd5fArva7581OlwD-69" value="" style="rounded=0;whiteSpace=wrap;html=1;fillColor=#1ba1e2;strokeColor=#006EAF;fontColor=#ffffff;" parent="1" vertex="1">
          <mxGeometry x="2590" y="1350" width="610" height="310" as="geometry" />
        </mxCell>
        <mxCell id="5zfeYd5fArva7581OlwD-70" value="&lt;span&gt;&lt;font style=&quot;font-size: 20px&quot;&gt;Druid&lt;/font&gt;&lt;br&gt;&lt;b&gt;实时大数据仓库&lt;/b&gt;&lt;br&gt;&lt;/span&gt;" style="rounded=0;whiteSpace=wrap;html=1;fillColor=#fff2cc;strokeColor=#d6b656;" parent="1" vertex="1">
          <mxGeometry x="2185.5" y="1440" width="180" height="70" as="geometry" />
        </mxCell>
        <mxCell id="5zfeYd5fArva7581OlwD-71" value="&lt;font&gt;&lt;font style=&quot;font-size: 20px&quot;&gt;数据清洗/处理&lt;/font&gt;&lt;/font&gt;" style="rounded=0;whiteSpace=wrap;html=1;fillColor=#fff2cc;strokeColor=#d6b656;" parent="1" vertex="1">
          <mxGeometry x="2185.5" y="1310" width="176" height="70" as="geometry" />
        </mxCell>
        <mxCell id="5zfeYd5fArva7581OlwD-72" value="&lt;font style=&quot;font-size: 20px&quot;&gt;mysql&lt;/font&gt;&lt;br&gt;埋点渲染规则配置" style="rounded=0;whiteSpace=wrap;html=1;fillColor=#aa00ff;strokeColor=#7700CC;fontColor=#ffffff;" parent="1" vertex="1">
          <mxGeometry x="2900" y="1719" width="300" height="81" as="geometry" />
        </mxCell>
        <mxCell id="5zfeYd5fArva7581OlwD-73" value="" style="endArrow=classic;html=1;entryX=0.5;entryY=0;entryDx=0;entryDy=0;" parent="1" target="5zfeYd5fArva7581OlwD-71" edge="1">
          <mxGeometry width="50" height="50" relative="1" as="geometry">
            <mxPoint x="2273.5" y="1251" as="sourcePoint" />
            <mxPoint x="2595.5" y="1320" as="targetPoint" />
          </mxGeometry>
        </mxCell>
        <mxCell id="5zfeYd5fArva7581OlwD-74" value="" style="endArrow=classic;html=1;entryX=0.5;entryY=0;entryDx=0;entryDy=0;" parent="1" edge="1">
          <mxGeometry width="50" height="50" relative="1" as="geometry">
            <mxPoint x="2273" y="1379.9999999999995" as="sourcePoint" />
            <mxPoint x="2273" y="1439" as="targetPoint" />
          </mxGeometry>
        </mxCell>
        <mxCell id="5zfeYd5fArva7581OlwD-75" value="" style="endArrow=classic;startArrow=classic;html=1;exitX=0.5;exitY=0;exitDx=0;exitDy=0;" parent="1" source="5zfeYd5fArva7581OlwD-72" edge="1">
          <mxGeometry width="50" height="50" relative="1" as="geometry">
            <mxPoint x="2910" y="1430" as="sourcePoint" />
            <mxPoint x="3050" y="1659" as="targetPoint" />
            <Array as="points" />
          </mxGeometry>
        </mxCell>
        <mxCell id="_CvqzVPTuTWaERdQjCWN-4" value="SQL" style="text;html=1;align=center;verticalAlign=middle;resizable=0;points=[];labelBackgroundColor=#ffffff;" parent="5zfeYd5fArva7581OlwD-75" vertex="1" connectable="0">
          <mxGeometry x="0.1336" y="-3" relative="1" as="geometry">
            <mxPoint as="offset" />
          </mxGeometry>
        </mxCell>
        <mxCell id="5zfeYd5fArva7581OlwD-76" value="" style="endArrow=classic;html=1;" parent="1" edge="1">
          <mxGeometry width="50" height="50" relative="1" as="geometry">
            <mxPoint x="3133" y="1260" as="sourcePoint" />
            <mxPoint x="3133" y="1351" as="targetPoint" />
          </mxGeometry>
        </mxCell>
        <mxCell id="5zfeYd5fArva7581OlwD-77" value="&lt;font style=&quot;font-size: 20px&quot;&gt;http&lt;/font&gt;" style="text;html=1;align=center;verticalAlign=middle;resizable=0;points=[];labelBackgroundColor=#ffffff;" parent="5zfeYd5fArva7581OlwD-76" vertex="1" connectable="0">
          <mxGeometry x="-0.0843" y="-1" relative="1" as="geometry">
            <mxPoint as="offset" />
          </mxGeometry>
        </mxCell>
        <mxCell id="5zfeYd5fArva7581OlwD-78" value="&lt;font style=&quot;font-size: 20px&quot;&gt;外卖App&amp;nbsp;&lt;br&gt;&lt;/font&gt;omega埋点" style="rounded=0;whiteSpace=wrap;html=1;fillColor=#fff2cc;strokeColor=#d6b656;" parent="1" vertex="1">
          <mxGeometry x="2185.5" y="1180" width="176" height="70" as="geometry" />
        </mxCell>
        <mxCell id="5zfeYd5fArva7581OlwD-79" value="&lt;font style=&quot;font-size: 20px&quot;&gt;redis&lt;/font&gt;&lt;br&gt;热案例" style="rounded=0;whiteSpace=wrap;html=1;fillColor=#e1d5e7;strokeColor=#9673a6;" parent="1" vertex="1">
          <mxGeometry x="2591" y="1719" width="309" height="81" as="geometry" />
        </mxCell>
        <mxCell id="5zfeYd5fArva7581OlwD-81" value="&lt;font size=&quot;1&quot;&gt;&lt;b style=&quot;font-size: 40px&quot;&gt;大前端&lt;/b&gt;&lt;/font&gt;" style="text;html=1;strokeColor=none;fillColor=none;align=center;verticalAlign=middle;whiteSpace=wrap;rounded=0;" parent="1" vertex="1">
          <mxGeometry x="2804" y="930" width="160" height="20" as="geometry" />
        </mxCell>
        <mxCell id="5zfeYd5fArva7581OlwD-82" value="&lt;font style=&quot;font-size: 40px;&quot;&gt;&lt;b style=&quot;font-size: 40px;&quot;&gt;大数据层&lt;/b&gt;&lt;/font&gt;" style="text;html=1;strokeColor=none;fillColor=none;align=center;verticalAlign=middle;whiteSpace=wrap;rounded=0;fontSize=40;" parent="1" vertex="1">
          <mxGeometry x="1957" y="1070" width="202" height="20" as="geometry" />
        </mxCell>
        <mxCell id="5zfeYd5fArva7581OlwD-83" value="&lt;span&gt;&lt;span style=&quot;font-size: 20px&quot;&gt;Elastic Search&lt;/span&gt;&lt;br&gt;&lt;b&gt;弹性大数据仓库&lt;/b&gt;&lt;br&gt;&lt;/span&gt;" style="rounded=0;whiteSpace=wrap;html=1;fillColor=#ffe6cc;strokeColor=#d79b00;" parent="1" vertex="1">
          <mxGeometry x="1970" y="1440" width="180" height="70" as="geometry" />
        </mxCell>
        <mxCell id="5zfeYd5fArva7581OlwD-84" value="&lt;font&gt;&lt;font style=&quot;font-size: 20px&quot;&gt;把脉服务&lt;/font&gt;&lt;/font&gt;" style="rounded=0;whiteSpace=wrap;html=1;fillColor=#ffe6cc;strokeColor=#d79b00;" parent="1" vertex="1">
          <mxGeometry x="1970" y="1310" width="176" height="70" as="geometry" />
        </mxCell>
        <mxCell id="5zfeYd5fArva7581OlwD-85" value="" style="endArrow=classic;html=1;entryX=0.5;entryY=0;entryDx=0;entryDy=0;" parent="1" target="5zfeYd5fArva7581OlwD-84" edge="1">
          <mxGeometry width="50" height="50" relative="1" as="geometry">
            <mxPoint x="2058" y="1251" as="sourcePoint" />
            <mxPoint x="2380" y="1320" as="targetPoint" />
          </mxGeometry>
        </mxCell>
        <mxCell id="5zfeYd5fArva7581OlwD-86" value="" style="endArrow=classic;html=1;entryX=0.5;entryY=0;entryDx=0;entryDy=0;" parent="1" edge="1">
          <mxGeometry width="50" height="50" relative="1" as="geometry">
            <mxPoint x="2057.5" y="1379.9999999999995" as="sourcePoint" />
            <mxPoint x="2057.5" y="1439" as="targetPoint" />
          </mxGeometry>
        </mxCell>
        <mxCell id="5zfeYd5fArva7581OlwD-87" value="&lt;font style=&quot;font-size: 20px&quot;&gt;外卖api&amp;nbsp;&lt;br&gt;&lt;/font&gt;接口日志" style="rounded=0;whiteSpace=wrap;html=1;fillColor=#ffe6cc;strokeColor=#d79b00;" parent="1" vertex="1">
          <mxGeometry x="1970" y="1180" width="176" height="70" as="geometry" />
        </mxCell>
        <mxCell id="5zfeYd5fArva7581OlwD-88" value="&lt;font style=&quot;font-size: 20px&quot;&gt;http&lt;/font&gt;" style="endArrow=classic;html=1;exitX=0.5;exitY=1;exitDx=0;exitDy=0;entryX=0.37;entryY=0.003;entryDx=0;entryDy=0;entryPerimeter=0;" parent="1" source="5zfeYd5fArva7581OlwD-67" target="5zfeYd5fArva7581OlwD-69" edge="1">
          <mxGeometry width="50" height="50" relative="1" as="geometry">
            <mxPoint x="2667.5800000000004" y="1250" as="sourcePoint" />
            <mxPoint x="2668.18" y="1308.44" as="targetPoint" />
          </mxGeometry>
        </mxCell>
        <mxCell id="5zfeYd5fArva7581OlwD-93" value="&lt;span&gt;&lt;span style=&quot;font-size: 20px&quot;&gt;Hive&lt;br&gt;&lt;/span&gt;离线大数据&lt;br&gt;店铺、菜品、订单，etc&lt;br&gt;&lt;/span&gt;" style="rounded=0;whiteSpace=wrap;html=1;fillColor=#ffcc99;strokeColor=#36393d;" parent="1" vertex="1">
          <mxGeometry x="1760" y="1440" width="180" height="70" as="geometry" />
        </mxCell>
        <mxCell id="5zfeYd5fArva7581OlwD-95" value="" style="endArrow=classic;html=1;entryX=0.5;entryY=0;entryDx=0;entryDy=0;exitX=0.25;exitY=1;exitDx=0;exitDy=0;" parent="1" source="5zfeYd5fArva7581OlwD-78" target="5zfeYd5fArva7581OlwD-93" edge="1">
          <mxGeometry width="50" height="50" relative="1" as="geometry">
            <mxPoint x="2229.5" y="1380" as="sourcePoint" />
            <mxPoint x="1850" y="1440" as="targetPoint" />
            <Array as="points">
              <mxPoint x="2230" y="1280" />
              <mxPoint x="2030" y="1280" />
              <mxPoint x="1850" y="1280" />
            </Array>
          </mxGeometry>
        </mxCell>
        <mxCell id="5zfeYd5fArva7581OlwD-97" style="edgeStyle=orthogonalEdgeStyle;rounded=0;orthogonalLoop=1;jettySize=auto;html=1;exitX=0.25;exitY=1;exitDx=0;exitDy=0;entryX=0.194;entryY=-0.029;entryDx=0;entryDy=0;entryPerimeter=0;" parent="1" source="5zfeYd5fArva7581OlwD-96" target="5zfeYd5fArva7581OlwD-93" edge="1">
          <mxGeometry relative="1" as="geometry" />
        </mxCell>
        <mxCell id="5zfeYd5fArva7581OlwD-96" value="&lt;span style=&quot;font-size: 20px&quot;&gt;&lt;span&gt;Mysql&lt;br&gt;&lt;/span&gt;&lt;/span&gt;&lt;font style=&quot;font-size: 12px&quot;&gt;外卖线上业务数据库&lt;/font&gt;&lt;span style=&quot;font-size: 20px&quot;&gt;&lt;span&gt;&lt;br&gt;&lt;/span&gt;&lt;/span&gt;店铺、菜品、订单，etc&lt;span&gt;&lt;br&gt;&lt;/span&gt;" style="rounded=0;whiteSpace=wrap;html=1;fillColor=#ffcc99;strokeColor=#36393d;" parent="1" vertex="1">
          <mxGeometry x="1750" y="1180" width="180" height="70" as="geometry" />
        </mxCell>
        <mxCell id="5zfeYd5fArva7581OlwD-100" value="&lt;span style=&quot;font-size: 24px&quot;&gt;&lt;b&gt;&amp;nbsp;nodejs服务端&lt;br&gt;&lt;/b&gt;&lt;/span&gt;" style="text;html=1;strokeColor=none;fillColor=none;align=center;verticalAlign=middle;whiteSpace=wrap;rounded=0;fontColor=#FFFFFF;" parent="1" vertex="1">
          <mxGeometry x="2810" y="1370" width="160" height="20" as="geometry" />
        </mxCell>
        <mxCell id="5zfeYd5fArva7581OlwD-102" value="&lt;font style=&quot;font-size: 24px&quot;&gt;HTTP&lt;br&gt;SQL&lt;/font&gt;" style="endArrow=classic;html=1;" parent="1" edge="1">
          <mxGeometry width="50" height="50" relative="1" as="geometry">
            <mxPoint x="2530" y="1475" as="sourcePoint" />
            <mxPoint x="2410" y="1475" as="targetPoint" />
          </mxGeometry>
        </mxCell>
        <mxCell id="5zfeYd5fArva7581OlwD-103" value="" style="rounded=0;whiteSpace=wrap;html=1;fillColor=#0050ef;strokeColor=#001DBC;fontColor=#ffffff;" parent="1" vertex="1">
          <mxGeometry x="2590" y="1440" width="610" height="220" as="geometry" />
        </mxCell>
        <mxCell id="5zfeYd5fArva7581OlwD-105" value="&lt;span style=&quot;font-size: 24px&quot;&gt;业务逻辑层&lt;br&gt;&lt;/span&gt;" style="text;html=1;strokeColor=none;fillColor=none;align=center;verticalAlign=middle;whiteSpace=wrap;rounded=0;fontColor=#FFFFFF;" parent="1" vertex="1">
          <mxGeometry x="2804" y="1400" width="160" height="20" as="geometry" />
        </mxCell>
        <mxCell id="5zfeYd5fArva7581OlwD-108" value="&lt;font style=&quot;font-size: 20px&quot;&gt;日志模块&lt;/font&gt;" style="rounded=0;whiteSpace=wrap;html=1;fillColor=#0050ef;strokeColor=#001DBC;fontColor=#ffffff;" parent="1" vertex="1">
          <mxGeometry x="3060" y="1440" width="140" height="220" as="geometry" />
        </mxCell>
        <mxCell id="5zfeYd5fArva7581OlwD-109" value="&lt;font style=&quot;font-size: 20px&quot;&gt;参数校验&lt;br&gt;中间件&lt;/font&gt;" style="rounded=0;whiteSpace=wrap;html=1;fillColor=#0050ef;strokeColor=#001DBC;fontColor=#ffffff;" parent="1" vertex="1">
          <mxGeometry x="2749" y="1550" width="151" height="110" as="geometry" />
        </mxCell>
        <mxCell id="5zfeYd5fArva7581OlwD-110" value="&lt;font style=&quot;font-size: 20px&quot;&gt;ORM&lt;/font&gt;" style="rounded=0;whiteSpace=wrap;html=1;fillColor=#0050ef;strokeColor=#001DBC;fontColor=#ffffff;" parent="1" vertex="1">
          <mxGeometry x="2749" y="1440" width="151" height="110" as="geometry" />
        </mxCell>
        <mxCell id="5zfeYd5fArva7581OlwD-111" value="&lt;span style=&quot;font-size: 20px&quot;&gt;Redis模块&lt;/span&gt;" style="rounded=0;whiteSpace=wrap;html=1;fillColor=#0050ef;strokeColor=#001DBC;fontColor=#ffffff;" parent="1" vertex="1">
          <mxGeometry x="2900" y="1550" width="160" height="110" as="geometry" />
        </mxCell>
        <mxCell id="5zfeYd5fArva7581OlwD-112" value="&lt;span style=&quot;font-size: 20px&quot;&gt;Response&lt;br&gt;&amp;nbsp;模块&lt;/span&gt;" style="rounded=0;whiteSpace=wrap;html=1;fillColor=#0050ef;strokeColor=#001DBC;fontColor=#ffffff;" parent="1" vertex="1">
          <mxGeometry x="2590" y="1550" width="160" height="110" as="geometry" />
        </mxCell>
        <mxCell id="5zfeYd5fArva7581OlwD-115" value="&lt;span style=&quot;font-size: 20px&quot;&gt;AUTH模块&lt;/span&gt;" style="rounded=0;whiteSpace=wrap;html=1;fillColor=#0050ef;strokeColor=#001DBC;fontColor=#ffffff;" parent="1" vertex="1">
          <mxGeometry x="2591" y="1440" width="159" height="110" as="geometry" />
        </mxCell>
        <mxCell id="5zfeYd5fArva7581OlwD-117" value="&lt;span style=&quot;font-size: 20px&quot;&gt;Request&lt;/span&gt;" style="rounded=0;whiteSpace=wrap;html=1;fillColor=#0050ef;strokeColor=#001DBC;fontColor=#ffffff;" parent="1" vertex="1">
          <mxGeometry x="2900" y="1440" width="160" height="110" as="geometry" />
        </mxCell>
        <mxCell id="5zfeYd5fArva7581OlwD-121" value="&lt;span style=&quot;font-size: 20px&quot;&gt;时光机web用户端&lt;/span&gt;" style="text;html=1;strokeColor=none;fillColor=none;align=center;verticalAlign=middle;whiteSpace=wrap;rounded=0;fontColor=#1A1A1A;fontStyle=1" parent="1" vertex="1">
          <mxGeometry x="2725.5" y="1000" width="178" height="20" as="geometry" />
        </mxCell>
        <mxCell id="5zfeYd5fArva7581OlwD-123" value="&lt;span style=&quot;font-size: 20px&quot;&gt;标签筛选页&lt;/span&gt;" style="rounded=0;whiteSpace=wrap;html=1;fillColor=#60a917;strokeColor=#2D7600;fontColor=#ffffff;" parent="1" vertex="1">
          <mxGeometry x="2591" y="1150" width="139" height="110" as="geometry" />
        </mxCell>
        <mxCell id="5zfeYd5fArva7581OlwD-124" value="&lt;span style=&quot;font-size: 20px&quot;&gt;行为搜索页&lt;/span&gt;" style="rounded=0;whiteSpace=wrap;html=1;fillColor=#60a917;strokeColor=#2D7600;fontColor=#ffffff;" parent="1" vertex="1">
          <mxGeometry x="2589" y="1040" width="139" height="110" as="geometry" />
        </mxCell>
        <mxCell id="5zfeYd5fArva7581OlwD-125" value="&lt;span style=&quot;font-size: 20px&quot;&gt;行为列表页&lt;/span&gt;" style="rounded=0;whiteSpace=wrap;html=1;fillColor=#60a917;strokeColor=#2D7600;fontColor=#ffffff;" parent="1" vertex="1">
          <mxGeometry x="2730" y="1040" width="139" height="110" as="geometry" />
        </mxCell>
        <mxCell id="5zfeYd5fArva7581OlwD-126" value="&lt;font style=&quot;font-size: 30px&quot;&gt;场景还原页&lt;br&gt;&lt;/font&gt;&lt;font style=&quot;font-size: 20px&quot;&gt;埋点渲染器&lt;/font&gt;" style="rounded=0;whiteSpace=wrap;html=1;fillColor=#60a917;strokeColor=#2D7600;fontColor=#ffffff;" parent="1" vertex="1">
          <mxGeometry x="2870" y="1040" width="170" height="220" as="geometry" />
        </mxCell>
        <mxCell id="5zfeYd5fArva7581OlwD-127" value="&lt;span style=&quot;font-size: 20px&quot;&gt;用户画像页&lt;/span&gt;" style="rounded=0;whiteSpace=wrap;html=1;fillColor=#60a917;strokeColor=#2D7600;fontColor=#ffffff;" parent="1" vertex="1">
          <mxGeometry x="2730" y="1150" width="139" height="110" as="geometry" />
        </mxCell>
        <mxCell id="_CvqzVPTuTWaERdQjCWN-5" value="" style="endArrow=classic;startArrow=classic;html=1;exitX=0.517;exitY=0.006;exitDx=0;exitDy=0;exitPerimeter=0;" parent="1" source="5zfeYd5fArva7581OlwD-79" edge="1">
          <mxGeometry width="50" height="50" relative="1" as="geometry">
            <mxPoint x="3060" y="1729" as="sourcePoint" />
            <mxPoint x="2750" y="1660" as="targetPoint" />
            <Array as="points" />
          </mxGeometry>
        </mxCell>
        <mxCell id="LJU2pcSpo_AcGykYrU09-2" value="&lt;div style=&quot;text-align: justify&quot;&gt;&lt;/div&gt;" style="rounded=1;whiteSpace=wrap;html=1;fillColor=#f5f5f5;strokeColor=#666666;fontColor=#333333;" parent="1" vertex="1">
          <mxGeometry x="2610" width="282.75" height="520" as="geometry" />
        </mxCell>
        <mxCell id="LJU2pcSpo_AcGykYrU09-3" value="&lt;div style=&quot;text-align: justify&quot;&gt;&lt;/div&gt;" style="rounded=1;whiteSpace=wrap;html=1;fillColor=#f5f5f5;strokeColor=#666666;fontColor=#333333;" parent="1" vertex="1">
          <mxGeometry x="3010" width="500" height="520" as="geometry" />
        </mxCell>
        <mxCell id="LJU2pcSpo_AcGykYrU09-4" value="&lt;font style=&quot;font-size: 20px&quot;&gt;时光机用户端&lt;br&gt;&lt;/font&gt;埋点渲染器" style="rounded=0;whiteSpace=wrap;html=1;fillColor=#d5e8d4;strokeColor=#82b366;" parent="1" vertex="1">
          <mxGeometry x="3060" y="80" width="176" height="70" as="geometry" />
        </mxCell>
        <mxCell id="LJU2pcSpo_AcGykYrU09-5" value="&lt;font style=&quot;font-size: 20px&quot;&gt;web管理端&lt;/font&gt;&lt;br&gt;埋点渲染规则配置" style="rounded=0;whiteSpace=wrap;html=1;fillColor=#aa00ff;strokeColor=#7700CC;fontColor=#ffffff;" parent="1" vertex="1">
          <mxGeometry x="3284" y="80" width="176" height="70" as="geometry" />
        </mxCell>
        <mxCell id="LJU2pcSpo_AcGykYrU09-6" value="&lt;font style=&quot;font-size: 20px&quot;&gt;nodejs服务端&lt;br&gt;&lt;/font&gt;埋点与埋点渲染规则匹配" style="rounded=0;whiteSpace=wrap;html=1;fillColor=#1ba1e2;strokeColor=#006EAF;fontColor=#ffffff;" parent="1" vertex="1">
          <mxGeometry x="3059" y="209" width="400" height="70" as="geometry" />
        </mxCell>
        <mxCell id="LJU2pcSpo_AcGykYrU09-7" value="&lt;span&gt;&lt;font style=&quot;font-size: 20px&quot;&gt;Druid&lt;/font&gt;&lt;br&gt;&lt;b&gt;实时大数据仓库&lt;/b&gt;&lt;br&gt;&lt;/span&gt;" style="rounded=0;whiteSpace=wrap;html=1;fillColor=#fff2cc;strokeColor=#d6b656;" parent="1" vertex="1">
          <mxGeometry x="2665.5" y="340" width="180" height="70" as="geometry" />
        </mxCell>
        <mxCell id="LJU2pcSpo_AcGykYrU09-8" value="&lt;font&gt;&lt;font style=&quot;font-size: 20px&quot;&gt;数据清洗/处理&lt;/font&gt;&lt;/font&gt;" style="rounded=0;whiteSpace=wrap;html=1;fillColor=#fff2cc;strokeColor=#d6b656;" parent="1" vertex="1">
          <mxGeometry x="2665.5" y="210" width="176" height="70" as="geometry" />
        </mxCell>
        <mxCell id="LJU2pcSpo_AcGykYrU09-9" value="&lt;font style=&quot;font-size: 20px&quot;&gt;mysql&lt;/font&gt;&lt;br&gt;埋点渲染规则配置" style="rounded=0;whiteSpace=wrap;html=1;fillColor=#aa00ff;strokeColor=#7700CC;fontColor=#ffffff;" parent="1" vertex="1">
          <mxGeometry x="3320" y="340" width="140" height="70" as="geometry" />
        </mxCell>
        <mxCell id="LJU2pcSpo_AcGykYrU09-10" value="" style="endArrow=classic;html=1;entryX=0.5;entryY=0;entryDx=0;entryDy=0;" parent="1" target="LJU2pcSpo_AcGykYrU09-8" edge="1">
          <mxGeometry width="50" height="50" relative="1" as="geometry">
            <mxPoint x="2753.5" y="151" as="sourcePoint" />
            <mxPoint x="3075.5" y="220" as="targetPoint" />
          </mxGeometry>
        </mxCell>
        <mxCell id="LJU2pcSpo_AcGykYrU09-11" value="" style="endArrow=classic;html=1;entryX=0.5;entryY=0;entryDx=0;entryDy=0;" parent="1" edge="1">
          <mxGeometry width="50" height="50" relative="1" as="geometry">
            <mxPoint x="2753" y="279.99999999999955" as="sourcePoint" />
            <mxPoint x="2753" y="339" as="targetPoint" />
          </mxGeometry>
        </mxCell>
        <mxCell id="LJU2pcSpo_AcGykYrU09-12" value="" style="endArrow=classic;startArrow=classic;html=1;exitX=0.5;exitY=0;exitDx=0;exitDy=0;entryX=0.825;entryY=1.014;entryDx=0;entryDy=0;entryPerimeter=0;" parent="1" source="LJU2pcSpo_AcGykYrU09-9" target="LJU2pcSpo_AcGykYrU09-6" edge="1">
          <mxGeometry width="50" height="50" relative="1" as="geometry">
            <mxPoint x="3390" y="330" as="sourcePoint" />
            <mxPoint x="3420" y="280" as="targetPoint" />
            <Array as="points" />
          </mxGeometry>
        </mxCell>
        <mxCell id="LJU2pcSpo_AcGykYrU09-13" value="" style="endArrow=classic;html=1;exitX=0.5;exitY=1;exitDx=0;exitDy=0;entryX=0.78;entryY=0;entryDx=0;entryDy=0;entryPerimeter=0;" parent="1" source="LJU2pcSpo_AcGykYrU09-5" target="LJU2pcSpo_AcGykYrU09-6" edge="1">
          <mxGeometry width="50" height="50" relative="1" as="geometry">
            <mxPoint x="3370" y="200" as="sourcePoint" />
            <mxPoint x="3420" y="150" as="targetPoint" />
          </mxGeometry>
        </mxCell>
        <mxCell id="LJU2pcSpo_AcGykYrU09-14" value="http" style="text;html=1;align=center;verticalAlign=middle;resizable=0;points=[];labelBackgroundColor=#ffffff;" parent="LJU2pcSpo_AcGykYrU09-13" vertex="1" connectable="0">
          <mxGeometry x="-0.0843" y="-1" relative="1" as="geometry">
            <mxPoint as="offset" />
          </mxGeometry>
        </mxCell>
        <mxCell id="LJU2pcSpo_AcGykYrU09-15" value="&lt;font style=&quot;font-size: 20px&quot;&gt;外卖App&amp;nbsp;&lt;br&gt;&lt;/font&gt;omega埋点" style="rounded=0;whiteSpace=wrap;html=1;fillColor=#fff2cc;strokeColor=#d6b656;" parent="1" vertex="1">
          <mxGeometry x="2665.5" y="80" width="176" height="70" as="geometry" />
        </mxCell>
        <mxCell id="LJU2pcSpo_AcGykYrU09-16" value="&lt;font style=&quot;font-size: 20px&quot;&gt;redis&lt;/font&gt;&lt;br&gt;热案例" style="rounded=0;whiteSpace=wrap;html=1;fillColor=#e1d5e7;strokeColor=#9673a6;" parent="1" vertex="1">
          <mxGeometry x="3160" y="340" width="140" height="70" as="geometry" />
        </mxCell>
        <mxCell id="LJU2pcSpo_AcGykYrU09-17" value="" style="endArrow=classic;startArrow=classic;html=1;exitX=0.5;exitY=0;exitDx=0;exitDy=0;entryX=0.825;entryY=1.014;entryDx=0;entryDy=0;entryPerimeter=0;" parent="1" edge="1">
          <mxGeometry width="50" height="50" relative="1" as="geometry">
            <mxPoint x="3236" y="339.02" as="sourcePoint" />
            <mxPoint x="3236" y="279.99999999999955" as="targetPoint" />
            <Array as="points" />
          </mxGeometry>
        </mxCell>
        <mxCell id="LJU2pcSpo_AcGykYrU09-18" value="&lt;font style=&quot;font-size: 24px&quot;&gt;&lt;b&gt;大前端&lt;/b&gt;&lt;/font&gt;" style="text;html=1;strokeColor=none;fillColor=none;align=center;verticalAlign=middle;whiteSpace=wrap;rounded=0;" parent="1" vertex="1">
          <mxGeometry x="3170" y="20" width="160" height="20" as="geometry" />
        </mxCell>
        <mxCell id="LJU2pcSpo_AcGykYrU09-19" value="&lt;font style=&quot;font-size: 24px&quot;&gt;&lt;b&gt;大数据层&lt;/b&gt;&lt;/font&gt;" style="text;html=1;strokeColor=none;fillColor=none;align=center;verticalAlign=middle;whiteSpace=wrap;rounded=0;" parent="1" vertex="1">
          <mxGeometry x="2673.5" y="20" width="160" height="20" as="geometry" />
        </mxCell>
        <mxCell id="LJU2pcSpo_AcGykYrU09-25" value="http" style="endArrow=classic;html=1;exitX=0.5;exitY=1;exitDx=0;exitDy=0;entryX=0.224;entryY=-0.008;entryDx=0;entryDy=0;entryPerimeter=0;" parent="1" edge="1">
          <mxGeometry width="50" height="50" relative="1" as="geometry">
            <mxPoint x="3147.58" y="150" as="sourcePoint" />
            <mxPoint x="3148.1800000000003" y="208.44000000000005" as="targetPoint" />
          </mxGeometry>
        </mxCell>
        <mxCell id="LJU2pcSpo_AcGykYrU09-26" value="" style="endArrow=classic;html=1;" parent="1" edge="1">
          <mxGeometry width="50" height="50" relative="1" as="geometry">
            <mxPoint x="3110" y="280" as="sourcePoint" />
            <mxPoint x="2845.5" y="374.1599999999994" as="targetPoint" />
            <Array as="points">
              <mxPoint x="3110" y="374" />
            </Array>
          </mxGeometry>
        </mxCell>
        <mxCell id="LJU2pcSpo_AcGykYrU09-27" value="http api" style="text;html=1;align=center;verticalAlign=middle;resizable=0;points=[];labelBackgroundColor=#ffffff;fontSize=20;" parent="LJU2pcSpo_AcGykYrU09-26" vertex="1" connectable="0">
          <mxGeometry x="-0.376" y="3" relative="1" as="geometry">
            <mxPoint x="-122.3" y="-3" as="offset" />
          </mxGeometry>
        </mxCell>
        <mxCell id="l__yoZixyj2KiPpJdSfq-1" value="&lt;span style=&quot;font-size: 30px&quot;&gt;业务数据&lt;/span&gt;" style="text;html=1;strokeColor=none;fillColor=none;align=center;verticalAlign=middle;whiteSpace=wrap;rounded=0;fontSize=40;" parent="1" vertex="1">
          <mxGeometry x="1738" y="1140" width="202" height="20" as="geometry" />
        </mxCell>
        <mxCell id="l__yoZixyj2KiPpJdSfq-4" value="&lt;span style=&quot;font-size: 30px&quot;&gt;接口日志&lt;/span&gt;" style="text;html=1;strokeColor=none;fillColor=none;align=center;verticalAlign=middle;whiteSpace=wrap;rounded=0;fontSize=40;" parent="1" vertex="1">
          <mxGeometry x="1948" y="1140" width="202" height="20" as="geometry" />
        </mxCell>
        <mxCell id="l__yoZixyj2KiPpJdSfq-5" value="&lt;span style=&quot;font-size: 30px&quot;&gt;埋点&lt;/span&gt;" style="text;html=1;strokeColor=none;fillColor=none;align=center;verticalAlign=middle;whiteSpace=wrap;rounded=0;fontSize=40;" parent="1" vertex="1">
          <mxGeometry x="2163.5" y="1140" width="202" height="20" as="geometry" />
        </mxCell>
        <mxCell id="AKAtIvpSkt71lELQfXqe-1" value="" style="rounded=0;whiteSpace=wrap;html=1;fillColor=#e1d5e7;strokeColor=#9673a6;" vertex="1" parent="1">
          <mxGeometry x="2460" y="2610" width="609" height="90" as="geometry" />
        </mxCell>
        <mxCell id="AKAtIvpSkt71lELQfXqe-2" value="&lt;div style=&quot;text-align: justify&quot;&gt;&lt;/div&gt;" style="rounded=1;whiteSpace=wrap;html=1;fillColor=#f5f5f5;strokeColor=#666666;fontColor=#333333;" vertex="1" parent="1">
          <mxGeometry x="3250" y="2639.76" width="702.75" height="350" as="geometry" />
        </mxCell>
        <mxCell id="AKAtIvpSkt71lELQfXqe-57" style="edgeStyle=orthogonalEdgeStyle;rounded=0;orthogonalLoop=1;jettySize=auto;html=1;entryX=-0.006;entryY=0.472;entryDx=0;entryDy=0;entryPerimeter=0;fontSize=20;" edge="1" parent="1" source="AKAtIvpSkt71lELQfXqe-3" target="AKAtIvpSkt71lELQfXqe-53">
          <mxGeometry relative="1" as="geometry" />
        </mxCell>
        <mxCell id="AKAtIvpSkt71lELQfXqe-58" value="HTTP" style="edgeLabel;html=1;align=center;verticalAlign=middle;resizable=0;points=[];fontSize=20;" vertex="1" connectable="0" parent="AKAtIvpSkt71lELQfXqe-57">
          <mxGeometry x="-0.0436" y="5" relative="1" as="geometry">
            <mxPoint y="1" as="offset" />
          </mxGeometry>
        </mxCell>
        <mxCell id="AKAtIvpSkt71lELQfXqe-3" value="&lt;div style=&quot;text-align: justify&quot;&gt;&lt;/div&gt;" style="rounded=1;whiteSpace=wrap;html=1;fillColor=#f5f5f5;strokeColor=#666666;fontColor=#333333;" vertex="1" parent="1">
          <mxGeometry x="1560" y="2583.62" width="730" height="420" as="geometry" />
        </mxCell>
        <mxCell id="AKAtIvpSkt71lELQfXqe-4" value="" style="rounded=0;whiteSpace=wrap;html=1;fillColor=#d5e8d4;strokeColor=#82b366;" vertex="1" parent="1">
          <mxGeometry x="1629.25" y="2678.62" width="451" height="280" as="geometry" />
        </mxCell>
        <mxCell id="AKAtIvpSkt71lELQfXqe-5" value="&lt;font style=&quot;font-size: 20px&quot;&gt;Management System&lt;br&gt;&lt;/font&gt;&lt;br&gt;&lt;div&gt;track event config&lt;br&gt;&lt;/div&gt;" style="rounded=0;whiteSpace=wrap;html=1;fillColor=#aa00ff;strokeColor=#7700CC;fontColor=#ffffff;" vertex="1" parent="1">
          <mxGeometry x="2110.25" y="2678.62" width="130" height="280" as="geometry" />
        </mxCell>
        <mxCell id="AKAtIvpSkt71lELQfXqe-6" value="" style="rounded=0;whiteSpace=wrap;html=1;fillColor=#1ba1e2;strokeColor=#006EAF;fontColor=#ffffff;" vertex="1" parent="1">
          <mxGeometry x="2459" y="2610" width="610" height="310" as="geometry" />
        </mxCell>
        <mxCell id="AKAtIvpSkt71lELQfXqe-7" value="&lt;span&gt;&lt;font style=&quot;font-size: 20px&quot;&gt;Druid&lt;/font&gt;&lt;br&gt;&lt;b&gt;realtime big data&lt;/b&gt;&lt;br&gt;&lt;/span&gt;" style="rounded=0;whiteSpace=wrap;html=1;fillColor=#fff2cc;strokeColor=#d6b656;" vertex="1" parent="1">
          <mxGeometry x="3723.5" y="2889.76" width="180" height="70" as="geometry" />
        </mxCell>
        <mxCell id="AKAtIvpSkt71lELQfXqe-9" value="&lt;font style=&quot;font-size: 20px&quot;&gt;mysql&lt;/font&gt;&lt;br&gt;track event &amp;nbsp;config" style="rounded=0;whiteSpace=wrap;html=1;fillColor=#aa00ff;strokeColor=#7700CC;fontColor=#ffffff;" vertex="1" parent="1">
          <mxGeometry x="2769" y="2979" width="300" height="81" as="geometry" />
        </mxCell>
        <mxCell id="AKAtIvpSkt71lELQfXqe-10" value="" style="endArrow=classic;html=1;entryX=0.5;entryY=0;entryDx=0;entryDy=0;" edge="1" parent="1" target="AKAtIvpSkt71lELQfXqe-7">
          <mxGeometry width="50" height="50" relative="1" as="geometry">
            <mxPoint x="3813.5" y="2810.76" as="sourcePoint" />
            <mxPoint x="3813.5" y="2869.76" as="targetPoint" />
          </mxGeometry>
        </mxCell>
        <mxCell id="AKAtIvpSkt71lELQfXqe-12" value="" style="endArrow=classic;startArrow=classic;html=1;exitX=0.5;exitY=0;exitDx=0;exitDy=0;" edge="1" parent="1" source="AKAtIvpSkt71lELQfXqe-9">
          <mxGeometry width="50" height="50" relative="1" as="geometry">
            <mxPoint x="2779" y="2690" as="sourcePoint" />
            <mxPoint x="2919" y="2919" as="targetPoint" />
            <Array as="points" />
          </mxGeometry>
        </mxCell>
        <mxCell id="AKAtIvpSkt71lELQfXqe-13" value="SQL" style="text;html=1;align=center;verticalAlign=middle;resizable=0;points=[];labelBackgroundColor=#ffffff;" vertex="1" connectable="0" parent="AKAtIvpSkt71lELQfXqe-12">
          <mxGeometry x="0.1336" y="-3" relative="1" as="geometry">
            <mxPoint as="offset" />
          </mxGeometry>
        </mxCell>
        <mxCell id="AKAtIvpSkt71lELQfXqe-16" value="&lt;span style=&quot;font-size: 20px&quot;&gt;Track Event&lt;/span&gt;&lt;br&gt;&lt;font style=&quot;font-size: 12px&quot;&gt;didi-food app&lt;/font&gt;" style="rounded=0;whiteSpace=wrap;html=1;fillColor=#fff2cc;strokeColor=#d6b656;" vertex="1" parent="1">
          <mxGeometry x="3725.5" y="2739.76" width="176" height="70" as="geometry" />
        </mxCell>
        <mxCell id="AKAtIvpSkt71lELQfXqe-17" value="&lt;font style=&quot;font-size: 20px&quot;&gt;redis&lt;/font&gt;" style="rounded=0;whiteSpace=wrap;html=1;fillColor=#e1d5e7;strokeColor=#9673a6;" vertex="1" parent="1">
          <mxGeometry x="2460" y="2979" width="309" height="81" as="geometry" />
        </mxCell>
        <mxCell id="AKAtIvpSkt71lELQfXqe-18" value="&lt;span style=&quot;font-size: 40px&quot;&gt;&lt;b&gt;Browser Side&lt;/b&gt;&lt;/span&gt;" style="text;html=1;strokeColor=none;fillColor=none;align=center;verticalAlign=middle;whiteSpace=wrap;rounded=0;" vertex="1" parent="1">
          <mxGeometry x="1776.75" y="2618.62" width="272.5" height="20" as="geometry" />
        </mxCell>
        <mxCell id="AKAtIvpSkt71lELQfXqe-19" value="&lt;b&gt;Big Data Layer&lt;/b&gt;" style="text;html=1;strokeColor=none;fillColor=none;align=center;verticalAlign=middle;whiteSpace=wrap;rounded=0;fontSize=40;" vertex="1" parent="1">
          <mxGeometry x="3426.5" y="2679.76" width="343" height="20" as="geometry" />
        </mxCell>
        <mxCell id="AKAtIvpSkt71lELQfXqe-20" value="&lt;span&gt;&lt;span style=&quot;font-size: 20px&quot;&gt;Elastic Search&lt;/span&gt;&lt;br&gt;&lt;/span&gt;" style="rounded=0;whiteSpace=wrap;html=1;fillColor=#ffe6cc;strokeColor=#d79b00;" vertex="1" parent="1">
          <mxGeometry x="3508" y="2889.76" width="180" height="70" as="geometry" />
        </mxCell>
        <mxCell id="AKAtIvpSkt71lELQfXqe-22" value="" style="endArrow=classic;html=1;" edge="1" parent="1" target="AKAtIvpSkt71lELQfXqe-20">
          <mxGeometry width="50" height="50" relative="1" as="geometry">
            <mxPoint x="3598" y="2810.76" as="sourcePoint" />
            <mxPoint x="3598" y="2869.76" as="targetPoint" />
          </mxGeometry>
        </mxCell>
        <mxCell id="AKAtIvpSkt71lELQfXqe-24" value="&lt;span style=&quot;font-size: 20px&quot;&gt;Api Log&lt;br&gt;&lt;/span&gt;&lt;font style=&quot;font-size: 12px&quot;&gt;didi-food server side&lt;/font&gt;&lt;span style=&quot;font-size: 20px&quot;&gt;&lt;br&gt;&lt;/span&gt;" style="rounded=0;whiteSpace=wrap;html=1;fillColor=#ffe6cc;strokeColor=#d79b00;" vertex="1" parent="1">
          <mxGeometry x="3510" y="2739.76" width="176" height="70" as="geometry" />
        </mxCell>
        <mxCell id="AKAtIvpSkt71lELQfXqe-26" value="&lt;span&gt;&lt;span style=&quot;font-size: 20px&quot;&gt;Hive&lt;br&gt;&lt;/span&gt;offline big data&lt;br&gt;shop、food、order，etc&lt;br&gt;&lt;/span&gt;" style="rounded=0;whiteSpace=wrap;html=1;fillColor=#ffcc99;strokeColor=#36393d;" vertex="1" parent="1">
          <mxGeometry x="3299.88" y="2889.76" width="180" height="70" as="geometry" />
        </mxCell>
        <mxCell id="AKAtIvpSkt71lELQfXqe-27" value="" style="endArrow=classic;html=1;entryX=0.5;entryY=0;entryDx=0;entryDy=0;exitX=0.25;exitY=1;exitDx=0;exitDy=0;" edge="1" parent="1" source="AKAtIvpSkt71lELQfXqe-16" target="AKAtIvpSkt71lELQfXqe-26">
          <mxGeometry width="50" height="50" relative="1" as="geometry">
            <mxPoint x="3769.5" y="2939.76" as="sourcePoint" />
            <mxPoint x="3390" y="2999.76" as="targetPoint" />
            <Array as="points">
              <mxPoint x="3769.88" y="2849.76" />
              <mxPoint x="3389.88" y="2849.76" />
              <mxPoint x="3390" y="2889.76" />
            </Array>
          </mxGeometry>
        </mxCell>
        <mxCell id="AKAtIvpSkt71lELQfXqe-28" style="edgeStyle=orthogonalEdgeStyle;rounded=0;orthogonalLoop=1;jettySize=auto;html=1;exitX=0.25;exitY=1;exitDx=0;exitDy=0;entryX=0.194;entryY=-0.029;entryDx=0;entryDy=0;entryPerimeter=0;" edge="1" parent="1" source="AKAtIvpSkt71lELQfXqe-29" target="AKAtIvpSkt71lELQfXqe-26">
          <mxGeometry relative="1" as="geometry" />
        </mxCell>
        <mxCell id="AKAtIvpSkt71lELQfXqe-29" value="&lt;span style=&quot;font-size: 20px&quot;&gt;&lt;span&gt;Mysql&lt;br&gt;&lt;/span&gt;&lt;/span&gt;shop、food、order，etc&lt;span&gt;&lt;br&gt;&lt;/span&gt;" style="rounded=0;whiteSpace=wrap;html=1;fillColor=#ffcc99;strokeColor=#36393d;" vertex="1" parent="1">
          <mxGeometry x="3290" y="2739.76" width="180" height="70" as="geometry" />
        </mxCell>
        <mxCell id="AKAtIvpSkt71lELQfXqe-32" value="" style="rounded=0;whiteSpace=wrap;html=1;fillColor=#0050ef;strokeColor=#001DBC;fontColor=#ffffff;" vertex="1" parent="1">
          <mxGeometry x="2459" y="2700" width="610" height="220" as="geometry" />
        </mxCell>
        <mxCell id="AKAtIvpSkt71lELQfXqe-33" value="&lt;font style=&quot;font-size: 20px&quot;&gt;Nodejs Business Logic layer&lt;/font&gt;" style="text;html=1;strokeColor=none;fillColor=none;align=center;verticalAlign=middle;whiteSpace=wrap;rounded=0;fontColor=#FFFFFF;" vertex="1" parent="1">
          <mxGeometry x="2612.5" y="2645" width="291" height="20" as="geometry" />
        </mxCell>
        <mxCell id="AKAtIvpSkt71lELQfXqe-34" value="&lt;font style=&quot;font-size: 20px&quot;&gt;Log Module&lt;/font&gt;" style="rounded=0;whiteSpace=wrap;html=1;fillColor=#0050ef;strokeColor=#001DBC;fontColor=#ffffff;" vertex="1" parent="1">
          <mxGeometry x="2929" y="2700" width="140" height="220" as="geometry" />
        </mxCell>
        <mxCell id="AKAtIvpSkt71lELQfXqe-35" value="&lt;font style=&quot;font-size: 20px&quot;&gt;Validator Middleware&lt;/font&gt;" style="rounded=0;whiteSpace=wrap;html=1;fillColor=#0050ef;strokeColor=#001DBC;fontColor=#ffffff;" vertex="1" parent="1">
          <mxGeometry x="2618" y="2810" width="151" height="110" as="geometry" />
        </mxCell>
        <mxCell id="AKAtIvpSkt71lELQfXqe-36" value="&lt;font style=&quot;font-size: 20px&quot;&gt;ORM Module&lt;/font&gt;" style="rounded=0;whiteSpace=wrap;html=1;fillColor=#0050ef;strokeColor=#001DBC;fontColor=#ffffff;" vertex="1" parent="1">
          <mxGeometry x="2618" y="2700" width="151" height="110" as="geometry" />
        </mxCell>
        <mxCell id="AKAtIvpSkt71lELQfXqe-37" value="&lt;span style=&quot;font-size: 20px&quot;&gt;Redis Module&lt;/span&gt;" style="rounded=0;whiteSpace=wrap;html=1;fillColor=#0050ef;strokeColor=#001DBC;fontColor=#ffffff;" vertex="1" parent="1">
          <mxGeometry x="2769" y="2810" width="160" height="110" as="geometry" />
        </mxCell>
        <mxCell id="AKAtIvpSkt71lELQfXqe-38" value="&lt;span style=&quot;font-size: 20px&quot;&gt;Response&lt;br&gt;&amp;nbsp;Module&lt;/span&gt;" style="rounded=0;whiteSpace=wrap;html=1;fillColor=#0050ef;strokeColor=#001DBC;fontColor=#ffffff;" vertex="1" parent="1">
          <mxGeometry x="2459" y="2810" width="160" height="110" as="geometry" />
        </mxCell>
        <mxCell id="AKAtIvpSkt71lELQfXqe-39" value="&lt;span style=&quot;font-size: 20px&quot;&gt;AUTH Module&lt;/span&gt;" style="rounded=0;whiteSpace=wrap;html=1;fillColor=#0050ef;strokeColor=#001DBC;fontColor=#ffffff;" vertex="1" parent="1">
          <mxGeometry x="2460" y="2700" width="159" height="110" as="geometry" />
        </mxCell>
        <mxCell id="AKAtIvpSkt71lELQfXqe-40" value="&lt;span style=&quot;font-size: 20px&quot;&gt;Request Module&lt;/span&gt;" style="rounded=0;whiteSpace=wrap;html=1;fillColor=#0050ef;strokeColor=#001DBC;fontColor=#ffffff;" vertex="1" parent="1">
          <mxGeometry x="2769" y="2700" width="160" height="110" as="geometry" />
        </mxCell>
        <mxCell id="AKAtIvpSkt71lELQfXqe-41" value="&lt;span style=&quot;font-size: 20px&quot;&gt;Time Machine(To C)&lt;/span&gt;" style="text;html=1;strokeColor=none;fillColor=none;align=center;verticalAlign=middle;whiteSpace=wrap;rounded=0;fontColor=#1A1A1A;fontStyle=1" vertex="1" parent="1">
          <mxGeometry x="1765.75" y="2698.62" width="211" height="20" as="geometry" />
        </mxCell>
        <mxCell id="AKAtIvpSkt71lELQfXqe-42" value="&lt;font style=&quot;font-size: 20px&quot;&gt;User Grouping&lt;br&gt;&lt;/font&gt;&lt;span style=&quot;font-size: 20px&quot;&gt;Page&lt;br&gt;&lt;/span&gt;" style="rounded=0;whiteSpace=wrap;html=1;fillColor=#60a917;strokeColor=#2D7600;fontColor=#ffffff;" vertex="1" parent="1">
          <mxGeometry x="1631.25" y="2738.62" width="139" height="110" as="geometry" />
        </mxCell>
        <mxCell id="AKAtIvpSkt71lELQfXqe-43" value="&lt;span style=&quot;font-size: 20px&quot;&gt;Session Query&lt;br&gt;Page&lt;br&gt;&lt;/span&gt;" style="rounded=0;whiteSpace=wrap;html=1;fillColor=#60a917;strokeColor=#2D7600;fontColor=#ffffff;" vertex="1" parent="1">
          <mxGeometry x="1771.25" y="2848.62" width="139" height="110" as="geometry" />
        </mxCell>
        <mxCell id="AKAtIvpSkt71lELQfXqe-44" value="&lt;span style=&quot;font-size: 20px&quot;&gt;Session List&lt;br&gt;Page&lt;br&gt;&lt;/span&gt;" style="rounded=0;whiteSpace=wrap;html=1;fillColor=#60a917;strokeColor=#2D7600;fontColor=#ffffff;" vertex="1" parent="1">
          <mxGeometry x="1631.25" y="2848.62" width="139" height="110" as="geometry" />
        </mxCell>
        <mxCell id="AKAtIvpSkt71lELQfXqe-45" value="&lt;font style=&quot;font-size: 30px&quot;&gt;Session Detail Page&lt;/font&gt;" style="rounded=0;whiteSpace=wrap;html=1;fillColor=#60a917;strokeColor=#2D7600;fontColor=#ffffff;" vertex="1" parent="1">
          <mxGeometry x="1910.25" y="2738.62" width="170" height="220" as="geometry" />
        </mxCell>
        <mxCell id="AKAtIvpSkt71lELQfXqe-46" value="&lt;span style=&quot;font-size: 20px&quot;&gt;User Portrait&lt;br&gt;Page&lt;br&gt;&lt;/span&gt;" style="rounded=0;whiteSpace=wrap;html=1;fillColor=#60a917;strokeColor=#2D7600;fontColor=#ffffff;" vertex="1" parent="1">
          <mxGeometry x="1771.25" y="2738.62" width="139" height="110" as="geometry" />
        </mxCell>
        <mxCell id="AKAtIvpSkt71lELQfXqe-47" value="" style="endArrow=classic;startArrow=classic;html=1;exitX=0.517;exitY=0.006;exitDx=0;exitDy=0;exitPerimeter=0;" edge="1" parent="1" source="AKAtIvpSkt71lELQfXqe-17">
          <mxGeometry width="50" height="50" relative="1" as="geometry">
            <mxPoint x="2929" y="2989" as="sourcePoint" />
            <mxPoint x="2619" y="2920" as="targetPoint" />
            <Array as="points" />
          </mxGeometry>
        </mxCell>
        <mxCell id="AKAtIvpSkt71lELQfXqe-54" value="&lt;span style=&quot;font-size: 40px&quot;&gt;&lt;b&gt;Server Side&lt;/b&gt;&lt;/span&gt;" style="text;html=1;strokeColor=none;fillColor=none;align=center;verticalAlign=middle;whiteSpace=wrap;rounded=0;" vertex="1" parent="1">
          <mxGeometry x="2624" y="2550" width="248.5" height="20" as="geometry" />
        </mxCell>
      </root>
    </mxGraphModel>
  </diagram>
</mxfile>
